<svg width="100" height="100" viewBox="0 0 100 100" fill="none" xmlns="http://www.w3.org/2000/svg">
<path d="M26 70C20.4242 70 15.697 68.0606 11.8182 64.1818C7.93939 60.303 6 55.5758 6 50C6 44.4242 7.93939 39.697 11.8182 35.8182C15.697 31.9394 20.4242 30 26 30C28.2424 30 30.3939 30.3939 32.4545 31.1818C34.5152 31.9697 36.3636 33.0909 38 34.5455L44.1818 40.1818L38.7273 45.0909L33.0909 40C32.1212 39.1515 31.0303 38.4848 29.8182 38C28.6061 37.5152 27.3333 37.2727 26 37.2727C22.4848 37.2727 19.4848 38.5152 17 41C14.5152 43.4848 13.2727 46.4848 13.2727 50C13.2727 53.5152 14.5152 56.5152 17 59C19.4848 61.4848 22.4848 62.7273 26 62.7273C27.3333 62.7273 28.6061 62.4848 29.8182 62C31.0303 61.5152 32.1212 60.8485 33.0909 60L61.2727 34.5455C62.9091 33.0909 64.7576 31.9697 66.8182 31.1818C68.8788 30.3939 71.0303 30 73.2727 30C78.8485 30 83.5758 31.9394 87.4545 35.8182C91.3333 39.697 93.2727 44.4242 93.2727 50C93.2727 55.5758 91.3333 60.303 87.4545 64.1818C83.5758 68.0606 78.8485 70 73.2727 70C71.0303 70 68.8788 69.6061 66.8182 68.8182C64.7576 68.0303 62.9091 66.9091 61.2727 65.4545L55.0909 59.8182L60.5455 54.9091L66.1818 60C67.1515 60.8485 68.2424 61.5152 69.4545 62C70.6667 62.4848 71.9394 62.7273 73.2727 62.7273C76.7879 62.7273 79.7879 61.4848 82.2727 59C84.7576 56.5152 86 53.5152 86 50C86 46.4848 84.7576 43.4848 82.2727 41C79.7879 38.5152 76.7879 37.2727 73.2727 37.2727C71.9394 37.2727 70.6667 37.5152 69.4545 38C68.2424 38.4848 67.1515 39.1515 66.1818 40L38 65.4545C36.3636 66.9091 34.5152 68.0303 32.4545 68.8182C30.3939 69.6061 28.2424 70 26 70Z" fill="url(#paint0_linear_5_165)"/>
<defs>
<linearGradient id="paint0_linear_5_165" x1="132.942" y1="30" x2="132.942" y2="146.364" gradientUnits="userSpaceOnUse">
<stop stop-color="#3959B8"/>
<stop offset="1" stop-color="#7593F8"/>
</linearGradient>
</defs>
</svg>
