<svg xmlns="http://www.w3.org/2000/svg" viewBox="0 0 64 64" fill="none">
  <rect width="64" height="64" rx="18" fill="#3959B8"/>
  <path
    d="M18 45.2C14.1 45.2 10.8 43.85 8.1 41.15C5.4 38.45 4.05 35.15 4.05 31.25C4.05 27.35 5.4 24.05 8.1 21.35C10.8 18.65 14.1 17.3 18 17.3C19.55 17.3 21.05 17.58 22.5 18.15C23.95 18.68 25.27 19.47 26.45 20.5L30.8 24.4L27 27.8L23.05 24.2C22.38 23.6 21.62 23.12 20.8 22.75C19.95 22.38 19.02 22.2 18 22.2C15.57 22.2 13.5 23.05 11.8 24.75C10.1 26.45 9.25 28.62 9.25 31.25C9.25 33.88 10.1 36.05 11.8 37.75C13.5 39.45 15.57 40.3 18 40.3C19.02 40.3 19.95 40.12 20.8 39.75C21.62 39.38 22.38 38.9 23.05 38.3L42.55 20.5C43.73 19.47 45.05 18.68 46.5 18.15C47.95 17.58 49.45 17.3 51 17.3C54.9 17.3 58.2 18.65 60.9 21.35C63.6 24.05 64.95 27.35 64.95 31.25C64.95 35.15 63.6 38.45 60.9 41.15C58.2 43.85 54.9 45.2 51 45.2C49.45 45.2 47.95 44.92 46.5 44.35C45.05 43.82 43.73 43.03 42.55 42L38.2 38.1L42 34.7L45.95 38.3C46.62 38.9 47.38 39.38 48.2 39.75C49.05 40.12 49.98 40.3 51 40.3C53.43 40.3 55.5 39.45 57.2 37.75C58.9 36.05 59.75 33.88 59.75 31.25C59.75 28.62 58.9 26.45 57.2 24.75C55.5 23.05 53.43 22.2 51 22.2C49.98 22.2 49.05 22.38 48.2 22.75C47.38 23.12 46.62 23.6 45.95 24.2L26.45 42C25.27 43.03 23.95 43.82 22.5 44.35C21.05 44.92 19.55 45.2 18 45.2Z"
    fill="#F5F5F7"
  />
</svg>
